#!OML:ASF E:\pregnant2\Project 1\Capture day 1\Session 1\pregnant2.ASF
:FULLY-SPECIFIED
:DEGREES
1567
root -4.51469 3.81134 19.8172 22.7011 -2.14818 -2.30673
lowerback -0.770451 -0.77666 2.24974
upperback -4.0907 -0.848151 5.38265
thorax -3.74546 -0.402448 4.33854
lowerneck -20.5678 0.150422 -0.367027
upperneck 35.9033 1.77731 -3.74063
head 16.3906 0.115034 -1.22951
rclavicle -7.95139e-016 -2.70347e-014
rhumerus 47.2123 23.6954 -29.8186
rradius 24.6638
rwrist 21.0182
rhand 2.71198 -7.64841
rfingers 7.12502
rthumb 28.1853 -395.549
lclavicle -7.95139e-016 -2.70347e-014
lhumerus 49.9479 -23.6766 39.9343
lradius 23.6488
lwrist -15.0715
lhand -1.45851 22.5244
lfingers 7.12502
lthumb 24.1927 411.019
rfemur -122.706 -1.3793 47.8389
rtibia 27.5128
rfoot -4.93075 5.43056
rtoes 3.78728
lfemur -116.256 9.46523 -7.20509
ltibia 19.8969
lfoot 16.3772 42.482
ltoes 7.34978
1568
root -4.51419 3.81045 19.8147 22.6864 -2.15312 -2.29507
lowerback -0.770504 -0.780542 2.22792
upperback -4.08407 -0.854074 5.38276
thorax -3.7378 -0.404741 4.35095
lowerneck -20.5514 0.133311 -0.37923
upperneck 35.9057 1.74238 -3.70738
head 16.386 0.103924 -1.21958
rclavicle 1.47101e-014 -4.77083e-014
rhumerus 47.1938 23.7105 -29.8447
rradius 24.6678
rwrist 21.0547
rhand 2.7532 -7.62042
rfingers 7.12502
rthumb 28.2247 -395.515
lclavicle 1.47101e-014 -4.77083e-014
lhumerus 49.9838 -23.6664 39.8921
lradius 23.6879
lwrist -15.0494
lhand -1.41719 22.5036
lfingers 7.12502
lthumb 24.2323 410.992
rfemur -122.657 -1.38775 47.8237
rtibia 27.4317
rfoot -4.9146 5.35308
rtoes 4.11594
lfemur -116.274 9.46753 -7.22018
ltibia 19.9589
lfoot 16.1031 42.6186
ltoes 7.43639
1569
root -4.51379 3.80954 19.8125 22.672 -2.16049 -2.28163
lowerback -0.77213 -0.781563 2.20774
upperback -4.07916 -0.856231 5.37891
thorax -3.73134 -0.40526 4.35818
lowerneck -20.5335 0.115252 -0.386976
upperneck 35.9127 1.70515 -3.67606
head 16.3835 0.0921894 -1.21184
rclavicle -1.51076e-014 1.27222e-014
rhumerus 47.1623 23.7174 -29.8898
rradius 24.6688
rwrist 21.0939
rhand 2.80447 -7.59623
rfingers 7.12502
rthumb 28.2737 -395.483
lclavicle -1.51076e-014 1.27222e-014
lhumerus 50.0322 -23.6824 39.8058
lradius 23.7416
lwrist -14.9835
lhand -1.38125 22.4982
lfingers 7.12502
lthumb 24.2667 410.982
rfemur -122.609 -1.39463 47.8056
rtibia 27.3542
rfoot -4.90204 5.27818
rtoes 4.46541
lfemur -116.288 9.47236 -7.23789
ltibia 20.0178
lfoot 15.8044 42.7441
ltoes 7.53345
1570
root -4.51349 3.80859 19.8104 22.6565 -2.17117 -2.26952
lowerback -0.772806 -0.778635 2.19278
upperback -4.07673 -0.852905 5.3718
thorax -3.72843 -0.403239 4.35899
lowerneck -20.5169 0.0981213 -0.388919
upperneck 35.928 1.66875 -3.64819
head 16.3856 0.0810231 -1.20666
rclavicle -1.82882e-014 -4.77083e-015
rhumerus 47.1186 23.7242 -29.9417
rradius 24.6688
rwrist 21.1229
rhand 2.85526 -7.58244
rfingers 7.12502
rthumb 28.3222 -395.461
lclavicle -1.82882e-014 -4.77083e-015
lhumerus 50.0907 -23.7248 39.6802
lradius 23.8085
lwrist -14.8783
lhand -1.3605 22.4999
lfingers 7.12502
lthumb 24.2866 410.981
rfemur -122.562 -1.39872 47.7874
rtibia 27.2828
rfoot -4.88828 5.20584
rtoes 4.81315
lfemur -116.299 9.48055 -7.25446
ltibia 20.0764
lfoot 15.4732 42.8654
ltoes 7.61361
1571
root -4.51341 3.80753 19.8086 22.6399 -2.1856 -2.25879
lowerback -0.773895 -0.769505 2.18586
upperback -4.07862 -0.841065 5.35915
thorax -3.73048 -0.397277 4.34933
lowerneck -20.5032 0.0830631 -0.379445
upperneck 35.956 1.6349 -3.62882
head 16.3952 0.0711446 -1.20704
rclavicle -1.47101e-014 -4.77083e-015
rhumerus 47.0549 23.7314 -30.0021
rradius 24.6671
rwrist 21.1424
rhand 2.90094 -7.57085
rfingers 7.12502
rthumb 28.3659 -395.442
lclavicle -1.47101e-014 -4.77083e-015
lhumerus 50.1399 -23.7618 39.5939
lradius 23.8654
lwrist -14.8141
lhand -1.34946 22.4905
lfingers 7.12502
lthumb 24.2972 410.971
rfemur -122.515 -1.3986 47.769
rtibia 27.2192
rfoot -4.87258 5.13052
rtoes 5.14463
lfemur -116.305 9.49202 -7.26938
ltibia 20.1374
lfoot 15.1229 42.9833
ltoes 7.65444
1572
root -4.51356 3.80636 19.807 22.6206 -2.20296 -2.24917
lowerback -0.776226 -0.754989 2.18597
upperback -4.08307 -0.82195 5.34162
thorax -3.73509 -0.387966 4.33044
lowerneck -20.4957 0.0711783 -0.359453
upperneck 35.9977 1.60476 -3.61554
head 16.4136 0.0632301 -1.21158
rclavicle 1.51076e-014 -5.24792e-014
rhumerus 46.9746 23.7401 -30.0663
rradius 24.664
rwrist 21.1538
rhand 2.93579 -7.56116
rfingers 7.12502
rthumb 28.3992 -395.427
lclavicle 1.51076e-014 -5.24792e-014
lhumerus 50.1891 -23.8089 39.5121
lradius 23.9213
lwrist -14.7618
lhand -1.35025 22.478
lfingers 7.12502
lthumb 24.2965 410.958
rfemur -122.469 -1.3962 47.7508
rtibia 27.1657
rfoot -4.86136 5.05375
rtoes 5.46434
lfemur -116.305 9.50482 -7.28215
ltibia 20.1997
lfoot 14.7602 43.1032
ltoes 7.66441
1573
root -4.51402 3.80506 19.8058 22.6004 -2.22164 -2.24147
lowerback -0.782338 -0.736827 2.19043
upperback -4.08795 -0.798153 5.3209
thorax -3.73834 -0.376514 4.30556
lowerneck -20.4938 0.0617496 -0.331718
upperneck 36.0471 1.57672 -3.60487
head 16.4375 0.0568039 -1.21842
rclavicle -2.38542e-015 1.90833e-014
rhumerus 46.8846 23.7483 -30.1328
rradius 24.6595
rwrist 21.1641
rhand 2.96296 -7.54936
rfingers 7.12502
rthumb 28.4252 -395.411
lclavicle -2.38542e-015 1.90833e-014
lhumerus 50.2356 -23.8571 39.4419
lradius 23.9729
lwrist -14.735
lhand -1.3561 22.4593
lfingers 7.12502
lthumb 24.2908 410.94
rfemur -122.427 -1.3912 47.7342
rtibia 27.1238
rfoot -4.84858 4.98344
rtoes 5.82788
lfemur -116.3 9.51874 -7.29171
ltibia 20.2605
lfoot 14.4178 43.2292
ltoes 7.64049
1574
root -4.51476 3.80369 19.8047 22.5794 -2.23911 -2.23524
lowerback -0.795488 -0.717647 2.19692
upperback -4.09124 -0.773467 5.29937
thorax -3.73601 -0.364727 4.2785
lowerneck -20.497 0.0545306 -0.297935
upperneck 36.1017 1.55134 -3.59786
head 16.4655 0.0517303 -1.22758
rclavicle 9.54166e-015 -1.74931e-014
rhumerus 46.7919 23.7548 -30.2015
rradius 24.653
rwrist 21.1825
rhand 2.97943 -7.53614
rfingers 7.12502
rthumb 28.4409 -395.395
lclavicle 9.54166e-015 -1.74931e-014
lhumerus 50.2747 -23.8994 39.3884
lradius 24.0181
lwrist -14.7416
lhand -1.36817 22.4281
lfingers 7.12502
lthumb 24.2793 410.911
rfemur -122.39 -1.38629 47.7193
rtibia 27.0945
rfoot -4.84377 4.91902
rtoes 6.27656
lfemur -116.289 9.53169 -7.29854
ltibia 20.3135
lfoot 14.1429 43.3556
ltoes 7.57777
1575
root -4.5158 3.80239 19.8037 22.5589 -2.25264 -2.22994
lowerback -0.811782 -0.702317 2.19767
upperback -4.09096 -0.754266 5.28287
thorax -3.72772 -0.355445 4.25994
lowerneck -20.5022 0.0500456 -0.268726
upperneck 36.151 1.53092 -3.58876
head 16.4914 0.0483973 -1.23394
rclavicle -1.90833e-014 1.59028e-015
rhumerus 46.7154 23.7659 -30.2565
rradius 24.6476
rwrist 21.2036
rhand 2.9921 -7.52189
rfingers 7.12502
rthumb 28.453 -395.378
lclavicle -1.90833e-014 1.59028e-015
lhumerus 50.3347 -23.9782 39.2392
lradius 24.0871
lwrist -14.6658
lhand -1.39163 22.4171
lfingers 7.12502
lthumb 24.2568 410.903
rfemur -122.361 -1.38351 47.7067
rtibia 27.0757
rfoot -4.83801 4.87111
rtoes 6.75152
lfemur -116.273 9.54213 -7.30286
ltibia 20.356
lfoot 13.9532 43.4836
ltoes 7.51247
1576
root -4.51702 3.80133 19.8024 22.5389 -2.25872 -2.22499
lowerback -0.829316 -0.693653 2.19211
upperback -4.08747 -0.744151 5.27333
thorax -3.7147 -0.350412 4.25238
lowerneck -20.505 0.0451165 -0.245163
upperneck 36.1916 1.51171 -3.57989
head 16.5123 0.0448133 -1.23895
rclavicle -1.51076e-014 1.59028e-015
rhumerus 46.6621 23.787 -30.2905
rradius 24.646
rwrist 21.221
rhand 2.99794 -7.50949
rfingers 7.12502
rthumb 28.4586 -395.365
lclavicle -1.51076e-014 1.59028e-015
lhumerus 50.3867 -24.0559 39.0715
lradius 24.161
lwrist -14.5805
lhand -1.4219 22.404
lfingers 7.12502
lthumb 24.2278 410.893
rfemur -122.339 -1.38654 47.6972
rtibia 27.0648
rfoot -4.83317 4.83871
rtoes 7.27817
lfemur -116.254 9.54699 -7.30442
ltibia 20.3861
lfoot 13.8456 43.6176
ltoes 7.51225
1577
root -4.5184 3.80054 19.8008 22.521 -2.25587 -2.21906
lowerback -0.847284 -0.687585 2.18774
upperback -4.08596 -0.737349 5.26568
thorax -3.70332 -0.347029 4.24626
lowerneck -20.5096 0.0409465 -0.221164
upperneck 36.2341 1.4946 -3.57365
head 16.5347 0.0417573 -1.24485
rclavicle -1.31198e-014 9.54166e-015
rhumerus 46.6122 23.8134 -30.3153
rradius 24.6456
rwrist 21.2401
rhand 3.00255 -7.49608
rfingers 7.12502
rthumb 28.463 -395.351
lclavicle -1.31198e-014 9.54166e-015
lhumerus 50.4328 -24.1372 38.9028
lradius 24.2333
lwrist -14.4972
lhand -1.45359 22.3919
lfingers 7.12502
lthumb 24.1974 410.885
rfemur -122.325 -1.39571 47.6905
rtibia 27.06
rfoot -4.8256 4.81808
rtoes 7.73183
lfemur -116.234 9.54488 -7.30418
ltibia 20.4049
lfoot 13.8188 43.7528
ltoes 7.62075
